<svg width="30" height="28" viewBox="0 0 30 28" fill="none" xmlns="http://www.w3.org/2000/svg">
<path d="M15 13.3417C16.8233 13.3417 18.5719 12.6389 19.8612 11.3879C21.1505 10.1368 21.8748 8.44008 21.8748 6.67086C21.8748 4.90164 21.1505 3.20488 19.8612 1.95385C18.5719 0.70282 16.8233 0 15 0C13.1767 0 11.4281 0.70282 10.1388 1.95385C8.84953 3.20488 8.12523 4.90164 8.12523 6.67086C8.12523 8.44008 8.84953 10.1368 10.1388 11.3879C11.4281 12.6389 13.1767 13.3417 15 13.3417ZM15 16.2726C5.85955 16.2726 0 21.1671 0 23.5501V28H30V23.5501C30 20.6682 24.4527 16.2726 15 16.2726Z" fill="#3DA8A3"/>
</svg>
