<svg width="324" height="264" viewBox="0 0 324 264" fill="none" xmlns="http://www.w3.org/2000/svg">
<mask id="mask0_22_1517" style="mask-type:alpha" maskUnits="userSpaceOnUse" x="0" y="0" width="324" height="264">
<rect width="324" height="264" fill="white"/>
</mask>
<g mask="url(#mask0_22_1517)">
<path d="M161.48 1.95996C72.8275 1.95996 0.959961 73.8175 0.959961 162.485C0.959961 251.132 72.8275 323 161.48 323C250.137 323 322 251.132 322 162.485C322 73.8175 250.137 1.95996 161.48 1.95996ZM161.48 20.341C239.998 20.341 303.614 83.9717 303.614 162.485C303.614 192.887 293.977 220.986 277.734 244.105C277.784 240.476 275.922 236.446 274.301 233.77C272.293 229.9 273.879 227.16 273.879 227.16L275.997 222.336C275.997 222.316 275.997 222.316 275.997 222.316C279.496 214.396 272.971 211.028 272.971 211.028L243.507 197.229C232.509 192.059 227.535 185.303 227.535 185.303C219.886 175.084 205.711 155.955 199.442 146.207C190.643 132.514 179.404 135.446 179.404 135.446H139.816C131.489 135.446 124.166 143.773 124.166 143.773L95.8063 185.087C90.4908 192.847 84.2065 196.085 82.3443 196.913L52.3786 209.918C43.4039 213.838 44.8595 220.173 46.1897 223.154C46.9225 224.515 47.7758 226.121 48.7646 227.918C49.2866 228.937 50.6117 232.144 48.5538 235.592C48.5387 235.607 48.5538 235.628 48.5387 235.658C46.29 238.479 45.3313 241.314 45.1707 244.035C28.938 220.931 19.3359 192.847 19.3359 162.48C19.341 83.9667 82.9818 20.341 161.48 20.341ZM77.7867 225.654L97.1114 218.562C104.917 215.675 110.493 209.065 110.493 209.065L116.908 201.24C116.908 201.24 120.763 196.737 120.763 201.24V234.865C120.617 236.39 119.679 238.8 114.815 237.685L77.7716 229.168C72.7824 228.018 77.7867 225.654 77.7867 225.654ZM214.851 213.748C214.851 213.748 218.922 218.075 224.232 219.741L244.466 226.01C244.466 226.01 248.772 228.164 244.481 229.153L205.992 238.012C202.057 238.92 201.474 236.541 201.409 235.402V202.57C201.409 202.57 201.439 196.597 206.117 202.57C206.117 202.57 206.117 202.57 206.117 202.585L214.851 213.748Z" fill="#D5FEFD" fill-opacity="0.5"/>
<path d="M161.48 123.238C176.864 123.238 189.343 110.765 189.343 95.3758C189.343 79.9864 176.864 67.5132 161.48 67.5132C146.111 67.5132 133.637 79.9864 133.637 95.3758C133.637 110.765 146.111 123.238 161.48 123.238Z" fill="#D5FEFD" fill-opacity="0.5"/>
</g>
</svg>
