<svg width="16" height="17" viewBox="0 0 16 17" fill="none" xmlns="http://www.w3.org/2000/svg">
<path d="M3.4901 9.66528L8.20374 15.1319C8.58467 15.6096 8.52947 16.3254 8.08044 16.7307C7.6314 17.1359 6.95856 17.0772 6.57763 16.5995L0.309374 9.32994C0.219239 9.2336 0.146199 9.12073 0.0937708 8.99676C0.0285735 8.84267 -0.00337082 8.67501 0.00028135 8.50607L0.000296992 8.50502C0.00392638 8.33646 0.0427416 8.17086 0.113933 8.02022C0.120855 8.00563 0.128073 7.99121 0.135581 7.97695C0.179025 7.89426 0.232115 7.81773 0.293592 7.7492L6.72851 0.363229C7.1288 -0.0962304 7.80341 -0.123454 8.23527 0.302392C8.66713 0.728238 8.69274 1.44594 8.29246 1.90538L3.50826 7.39667H14.9338C15.5226 7.39667 16 7.90452 16 8.53098C16 9.15745 15.5226 9.6653 14.9338 9.6653H3.4901V9.66528Z" fill="white"/>
</svg>
