<svg width="40" height="40" viewBox="0 0 40 40" fill="none" xmlns="http://www.w3.org/2000/svg">
<circle cx="20" cy="20" r="20" fill="#3DA8A3"/>
<path d="M26.7404 23.8681H13.2594C12.5649 23.8681 12 24.44 12 25.1432C12 25.8464 12.5649 26.4185 13.2594 26.4185H26.7404C27.4349 26.4185 28 25.8464 28 25.1432C28 24.4401 27.4349 23.8681 26.7404 23.8681Z" fill="white"/>
<path d="M18.1054 27.5367C18.249 28.3847 18.9697 29 19.819 29C20.6686 29 21.3895 28.3847 21.5331 27.5367L21.5443 27.4707H18.0942L18.1054 27.5367Z" fill="white"/>
<path d="M18.7638 13.0241C18.8358 12.4466 19.3226 12 19.9125 12C20.4887 12 20.9666 12.4261 21.0556 12.984C23.6125 13.487 25.4941 15.7652 25.4941 18.4404V21.2381C25.4941 21.8284 25.6545 22.4101 25.9579 22.9203L26.0086 23.0059H13.9915L14.0424 22.9203C14.3456 22.41 14.5058 21.8283 14.5058 21.2381V18.4404C14.5058 15.8361 16.2808 13.6008 18.7638 13.0241Z" fill="white"/>
</svg>
