<svg width="30" height="31" viewBox="0 0 30 31" fill="none" xmlns="http://www.w3.org/2000/svg">
<path d="M8.56418 6.23829C9.52801 6.23829 10.3095 5.45673 10.3095 4.49241V1.74533C10.3096 0.781556 9.52801 0 8.56418 0C7.59992 0 6.81836 0.781556 6.81836 1.74533V4.49241C6.81836 5.45679 7.59992 6.23829 8.56418 6.23829Z" fill="#3DA8A3"/>
<path d="M21.4363 6.23829C22.4001 6.23829 23.1816 5.45673 23.1816 4.49241V1.74533C23.1817 0.781556 22.4001 0 21.4363 0C20.4719 0 19.6904 0.781556 19.6904 1.74533V4.49241C19.6905 5.45679 20.472 6.23829 21.4363 6.23829Z" fill="#3DA8A3"/>
<path d="M25.7962 2.48792H24.716V4.49242C24.716 6.30127 23.2448 7.77243 21.4366 7.77243C19.6278 7.77243 18.1566 6.30127 18.1566 4.49242V2.48792H11.8433V4.49242C11.8433 6.30127 10.3722 7.77243 8.56385 7.77243C6.75507 7.77243 5.28391 6.30127 5.28391 4.49242V2.48792H4.20377C1.88212 2.48792 1.44686e-09 4.3701 1.44686e-09 6.69175V26.6487C-6.02573e-05 28.9703 1.88212 30.8525 4.20377 30.8525H25.7962C28.1178 30.8525 30 28.9703 30 26.6487V6.69175C30 4.3701 28.1178 2.48792 25.7962 2.48792ZM26.6916 25.9106C26.6916 26.9847 25.8176 27.8587 24.7434 27.8587H5.25649C4.18232 27.8587 3.30839 26.9847 3.30839 25.9106V10.2968H26.6916L26.6916 25.9106Z" fill="#3DA8A3"/>
<path d="M12.0542 23.4911C13.858 23.4911 15.1185 22.2706 15.1185 20.5238C15.1185 19.4241 14.5647 18.5681 13.9689 18.2166C14.5872 17.7467 14.9252 17.063 14.9252 16.272C14.9252 14.62 13.7931 13.5529 12.0408 13.5529C10.5461 13.5529 9.38753 14.3983 9.1568 15.6582C9.14432 15.7337 9.15981 15.8071 9.20072 15.864C9.23971 15.9184 9.29961 15.9549 9.3621 15.9648L10.5431 16.2425L10.6016 16.248C10.7189 16.248 10.8078 16.1806 10.8483 16.0573C11.0151 15.4764 11.3976 15.1813 11.9854 15.1813C12.6835 15.1813 13.117 15.6208 13.117 16.3269C13.117 17.0815 12.6291 17.5694 11.8745 17.5694H11.5019C11.3497 17.5694 11.2402 17.6793 11.2402 17.8321V18.9223C11.2402 19.0741 11.3497 19.1845 11.5019 19.1845H11.9019C12.7704 19.1845 13.3102 19.7238 13.3102 20.5922C13.3102 21.3638 12.8173 21.8627 12.0542 21.8627C11.1963 21.8627 10.8682 21.2919 10.7503 20.9538C10.7119 20.8394 10.616 20.7685 10.5001 20.7685L10.4527 20.772L9.22621 21.0547C9.0869 21.1006 9.00892 21.229 9.03393 21.3793C9.32811 22.6816 10.4857 23.4911 12.0542 23.4911Z" fill="#3DA8A3"/>
<path d="M17.7623 16.8377C17.8097 16.8377 17.8587 16.8213 17.9106 16.7878L19.177 15.8984V23.0771C19.177 23.2295 19.2874 23.3393 19.4397 23.3393H20.7102C20.8615 23.3393 20.9713 23.2295 20.9713 23.0771V13.9668C20.9713 13.8144 20.8615 13.7046 20.7102 13.7046H19.5361C19.4042 13.7046 19.3069 13.7371 19.2145 13.8109L17.7063 14.9046C17.6079 14.9825 17.5625 15.0749 17.5625 15.1948V16.603C17.5625 16.6655 17.5775 16.7179 17.607 16.7588C17.6429 16.8088 17.6998 16.8377 17.7623 16.8377Z" fill="#3DA8A3"/>
</svg>
