<svg width="36" height="30" viewBox="0 0 36 30" fill="none" xmlns="http://www.w3.org/2000/svg">
<path d="M26.1948 24.7406V18.685L29.9504 14.9294V25.9619C29.9504 28.1688 28.1192 30 25.9604 30H3.98998C1.78317 30 0 28.1688 0 25.9619V4.03806C0 1.83125 1.78468 0 3.98998 0H26.2894V0.0465701L22.5338 3.75563H5.25789C4.46019 3.75563 3.75563 4.46019 3.75563 5.30446V24.7406C3.75563 25.5864 4.46019 26.2429 5.25789 26.2429H24.694C25.4917 26.2429 26.1948 25.5849 26.1948 24.7406ZM29.7626 1.83125L33.7526 5.82123L35.5839 3.98999L31.5939 0L29.7626 1.83125ZM15.7256 15.9149L19.669 19.9049L32.3916 7.18227L28.4482 3.19229L15.7256 15.9149ZM12.9089 22.675L18.3545 21.2193L14.3645 17.2293L12.9089 22.675Z" fill="#3DA8A3"/>
</svg>
