<svg width="30" height="31" viewBox="0 0 30 31" fill="none" xmlns="http://www.w3.org/2000/svg">
<path d="M12.8717 12.9113C16.437 12.9113 19.3273 10.021 19.3273 6.45566C19.3273 2.8903 16.437 0 12.8717 0C9.30631 0 6.41602 2.8903 6.41602 6.45566C6.41602 10.021 9.30631 12.9113 12.8717 12.9113Z" fill="#3DA8A3"/>
<path d="M24.0041 24.7134H17.0088V26.1124H24.0041V24.7134Z" fill="#3DA8A3"/>
<path d="M11.0128 26.712V29.71C11.0128 29.975 11.1181 30.2292 11.3055 30.4166C11.4929 30.604 11.7471 30.7093 12.0121 30.7093H29.0007C29.2657 30.7093 29.5199 30.604 29.7073 30.4166C29.8947 30.2292 30 29.975 30 29.71V19.7167C30 19.4517 29.8947 19.1975 29.7073 19.0101C29.5199 18.8227 29.2657 18.7174 29.0007 18.7174H22.0054V17.2484C22.0054 16.9833 21.9001 16.7292 21.7127 16.5418C21.5253 16.3543 21.2711 16.2491 21.006 16.2491C20.741 16.2491 20.4868 16.3543 20.2994 16.5418C20.112 16.7292 20.0067 16.9833 20.0067 17.2484V18.7174H18.0081V15.1398C16.3099 14.8624 14.5922 14.7221 12.8715 14.7201C9.07687 14.7039 5.32474 15.5192 1.87891 17.1085C1.31178 17.3761 0.833319 17.8008 0.500313 18.3322C0.167307 18.8636 -0.00627168 19.4794 0.000173163 20.1065V26.712H11.0128ZM28.0013 28.7107H13.0114V20.7161H20.0067V21.1358C20.0067 21.4008 20.112 21.655 20.2994 21.8424C20.4868 22.0298 20.741 22.1351 21.006 22.1351C21.2711 22.1351 21.5253 22.0298 21.7127 21.8424C21.9001 21.655 22.0054 21.4008 22.0054 21.1358V20.7161H28.0013V28.7107Z" fill="#3DA8A3"/>
</svg>
