<svg width="30" height="30" viewBox="0 0 30 30" fill="none" xmlns="http://www.w3.org/2000/svg">
<path d="M29.9283 22.1589C29.4324 26.1554 26.1571 29.4307 22.1607 29.9265C19.7417 30.227 17.4881 29.5659 15.7302 28.2738C14.7236 27.5377 14.964 25.9751 16.1659 25.6145C20.6883 24.2473 24.249 20.6715 25.6313 16.1492C25.9919 14.9623 27.5544 14.7219 28.2906 15.7135C29.5677 17.4864 30.2287 19.74 29.9283 22.1589Z" fill="#3DA8A3"/>
<path d="M12.0045 0C5.37872 0 0 5.37872 0 12.0045C0 18.6302 5.37872 24.0089 12.0045 24.0089C18.6302 24.0089 24.0089 18.6302 24.0089 12.0045C23.9939 5.37872 18.6302 0 12.0045 0ZM10.5922 10.3217L14.213 11.5838C15.5202 12.0495 16.1512 12.966 16.1512 14.3783C16.1512 16.0009 14.8591 17.3381 13.2815 17.3381H13.1463V17.4132C13.1463 18.0292 12.6355 18.5401 12.0195 18.5401C11.4035 18.5401 10.8927 18.0292 10.8927 17.4132V17.3231C9.22496 17.248 7.88779 15.8507 7.88779 14.1079C7.88779 13.4919 8.39862 12.981 9.01462 12.981C9.63062 12.981 10.1414 13.4919 10.1414 14.1079C10.1414 14.6488 10.5321 15.0845 11.0129 15.0845H13.2665C13.6121 15.0845 13.8825 14.7689 13.8825 14.3783C13.8825 13.8525 13.7924 13.8224 13.4468 13.7022L9.82593 12.4402C8.53384 11.9894 7.88779 11.073 7.88779 9.64564C7.88779 8.02301 9.17988 6.68584 10.7574 6.68584H10.8927V6.62574C10.8927 6.00974 11.4035 5.49892 12.0195 5.49892C12.6355 5.49892 13.1463 6.00974 13.1463 6.62574V6.71589C14.814 6.79101 16.1512 8.18828 16.1512 9.9311C16.1512 10.5471 15.6404 11.0579 15.0244 11.0579C14.4084 11.0579 13.8975 10.5471 13.8975 9.9311C13.8975 9.39023 13.5069 8.95452 13.0261 8.95452H10.7725C10.4269 8.95452 10.1565 9.27003 10.1565 9.66066C10.1414 10.1715 10.2316 10.2015 10.5922 10.3217Z" fill="#3DA8A3"/>
</svg>
