<svg width="30" height="30" viewBox="0 0 30 30" fill="none" xmlns="http://www.w3.org/2000/svg">
<path d="M7.68997 0C6.42616 0 5.4002 1.02596 5.4002 2.28977V2.4924H2.27964C1.01583 2.4924 0 3.51836 0 4.78217V26.8085C0 28.0723 1.01583 29.0983 2.27964 29.0983H22.8875C24.1513 29.0983 25.1672 28.0723 25.1672 26.8085V22.6241L21.3576 27.5177C21.2602 27.644 21.1206 27.731 20.9642 27.7626C20.8079 27.7942 20.6454 27.7684 20.5066 27.69L20.4357 27.6494C20.4075 27.6345 20.3804 27.6176 20.3546 27.5988L17.8723 25.6636L17.5887 25.4407H5.78521C5.49004 25.4407 5.24823 25.1989 5.24823 24.9037V24.1033C5.24823 23.8082 5.49004 23.5765 5.78521 23.5765H15.1874L12.381 21.3982C12.2825 21.3192 12.2087 21.2137 12.1682 21.0942H5.78521C5.49004 21.0942 5.24823 20.8524 5.24823 20.5572V19.767C5.24823 19.4718 5.49004 19.23 5.78521 19.23H13.2219L14.2452 17.9129C14.2983 17.8435 14.3645 17.7853 14.4402 17.7416C14.5158 17.6979 14.5993 17.6696 14.686 17.6583C14.7726 17.647 14.8606 17.6529 14.9449 17.6758C15.0292 17.6986 15.1082 17.7378 15.1773 17.7913L20.1418 21.6515L25.1672 15.1976V4.78217C25.1672 3.51836 24.1513 2.4924 22.8875 2.4924H19.767V2.28977C19.767 1.02596 18.741 0 17.4772 0H7.68997ZM7.40628 1.92503H17.7609V4.31611C17.7609 5.31572 18.4002 6.15298 19.2908 6.46403H5.87639C6.76699 6.15298 7.40628 5.31572 7.40628 4.31611V1.92503ZM4.45795 6.60588H4.62006C4.56451 6.62518 4.51143 6.64328 4.45795 6.66667V6.60588ZM20.5471 6.60588H20.7092V6.66667C20.6557 6.64328 20.6027 6.62518 20.5471 6.60588ZM5.78521 10.537H12.8571C13.1523 10.537 13.3941 10.7687 13.3941 11.0638V11.8744C13.3941 12.1695 13.1523 12.4113 12.8571 12.4113H5.78521C5.49004 12.4113 5.24823 12.1695 5.24823 11.8744V11.0638C5.24823 10.7687 5.49004 10.537 5.78521 10.537ZM27.4468 13.3536L20.2634 22.5836L14.772 18.3181L12.7862 20.8612L18.2877 25.1266L20.77 27.0618L20.8308 27.1125L30 15.3394L27.4468 13.3536ZM5.78521 14.8835H19.382C19.6771 14.8835 19.9189 15.1253 19.9189 15.4205V16.2209C19.9189 16.516 19.6771 16.7477 19.382 16.7477H5.78521C5.49004 16.7477 5.24823 16.516 5.24823 16.2209V15.4205C5.24823 15.1253 5.49004 14.8835 5.78521 14.8835Z" fill="#3DA8A3"/>
</svg>
