<svg width="123" height="123" viewBox="0 0 123 123" fill="none" xmlns="http://www.w3.org/2000/svg">
<circle cx="61.5" cy="61.5" r="61.5" fill="white"/>
<path d="M61.5 0C27.5309 0 0 27.5309 0 61.5C0 95.4691 27.5309 123 61.5 123C95.4691 123 123 95.4691 123 61.5C123 27.5309 95.4691 0 61.5 0ZM61.5 30.75C71.0541 30.75 78.7969 38.4952 78.7969 48.0469C78.7969 57.5986 71.0613 65.3438 61.5 65.3438C51.9483 65.3438 44.2031 57.5986 44.2031 48.0469C44.2031 38.4952 51.9387 30.75 61.5 30.75ZM61.5 107.625C48.7844 107.625 37.2604 102.453 28.9002 94.1022C32.792 84.058 42.4014 76.875 53.8125 76.875H69.1875C80.6082 76.875 90.2176 84.0532 94.0998 94.1022C85.7397 102.46 74.2084 107.625 61.5 107.625Z" fill="#4DCCC6"/>
</svg>
